<svg id="Group_16" data-name="Group 16" xmlns="http://www.w3.org/2000/svg" xmlns:xlink="http://www.w3.org/1999/xlink" width="25.578" height="25.578" viewBox="0 0 25.578 25.578">
  <defs>
    <clipPath id="clip-path">
      <rect id="Rectangle_8" data-name="Rectangle 8" width="25.578" height="25.578" fill="none"/>
    </clipPath>
  </defs>
  <g id="Group_15" data-name="Group 15" clip-path="url(#clip-path)">
    <path id="Path_23354" data-name="Path 23354" d="M25.579,12.789A12.789,12.789,0,1,1,12.79,0,12.789,12.789,0,0,1,25.579,12.789" transform="translate(-0.001)" fill="#838992"/>
    <path id="Path_23355" data-name="Path 23355" d="M49.52,28.018c0,3.552-2.227,6.431-4.975,6.431S39.57,31.57,39.57,28.018s2.228-6.431,4.975-6.431,4.975,2.879,4.975,6.431" transform="translate(-31.756 -17.324)" fill="#fff"/>
    <path id="Path_23356" data-name="Path 23356" d="M24.271,89.142c-4.162,0-7.825,1.272-9.964,3.2a12.783,12.783,0,0,0,19.928,0c-2.139-1.928-5.8-3.2-9.964-3.2" transform="translate(-11.482 -71.539)" fill="#fff"/>
    <path id="Path_23357" data-name="Path 23357" d="M55.337,72.885H54.227a1.906,1.906,0,0,1-1.9-1.9v-4.32a1.906,1.906,0,0,1,1.9-1.9h1.111a1.906,1.906,0,0,1,1.9,1.9v4.32a1.906,1.906,0,0,1-1.9,1.9" transform="translate(-41.993 -51.974)" fill="#fff"/>
    <path id="Path_23358" data-name="Path 23358" d="M36.05,50.532c.289.834.175,1.632-.257,1.781s-1.016-.4-1.306-1.239-.175-1.632.257-1.781,1.016.405,1.306,1.239" transform="translate(-27.549 -39.539)" fill="#fff"/>
    <path id="Path_23359" data-name="Path 23359" d="M85.828,50.532c-.29.834-.175,1.632.257,1.781s1.016-.4,1.306-1.239.175-1.632-.257-1.781-1.016.405-1.306,1.239" transform="translate(-68.751 -39.539)" fill="#fff"/>
    <path id="Path_23360" data-name="Path 23360" d="M37.514,23.943a7.691,7.691,0,0,1-1.279-3.765c.033-1.341,1.055-2.758,2.4-2.709a3.966,3.966,0,0,0,.7.027,2.86,2.86,0,0,0,1.184-.724,3.153,3.153,0,0,1,3.009-.38c.6.246,1.117.677,1.706.957a3.836,3.836,0,0,0,3.506-.142,1.991,1.991,0,0,1-1.027.913,1.9,1.9,0,0,0,1.243-.035,2.131,2.131,0,0,1-1.091.95l1.021.07a2.572,2.572,0,0,1-1.176.913l.8.026a1.883,1.883,0,0,1-1.318,1.205l.516.007L46.012,23.7a2.154,2.154,0,0,1-.567.624,2.018,2.018,0,0,1-.66.236,16.531,16.531,0,0,1-5.1.332,3.12,3.12,0,0,1-1.656-.507,1.223,1.223,0,0,1-.393-1.549" transform="translate(-29.079 -12.978)" fill="#fff"/>
    <path id="Path_23361" data-name="Path 23361" d="M48.076,87.126a14.458,14.458,0,0,1,.252-2.01,1.905,1.905,0,0,0,1.406.45l2.3.094a1.693,1.693,0,0,1-.226,1.51,1.463,1.463,0,0,1-.654.324,6.078,6.078,0,0,1-1.589.222c-.636,0-1.395-.187-1.6-.79l.207-.17" transform="translate(-38.494 -68.308)" fill="#fff"/>
    <path id="Path_23362" data-name="Path 23362" d="M64.647,87.126a14.519,14.519,0,0,0-.252-2.01,1.906,1.906,0,0,1-1.406.45l-2.3.094a1.693,1.693,0,0,0,.226,1.51,1.463,1.463,0,0,0,.654.324,6.075,6.075,0,0,0,1.588.222c.636,0,1.395-.187,1.6-.79l-.207-.17" transform="translate(-48.65 -68.308)" fill="#fff"/>
  </g>
</svg>
