<svg xmlns="http://www.w3.org/2000/svg" width="18" height="18" viewBox="0 0 18 18">
  <g id="Group_9" data-name="Group 9" transform="translate(-58 -332)">
    <path id="Path_21295" data-name="Path 21295" d="M730,231.993q.364.006.75.005t.75-.005V233.5h2.25a.75.75,0,0,1,0,1.5h-6a.75.75,0,0,1,0-1.5H730v-1.505Z" transform="translate(-663.75 115.002)" fill="#838992"/>
    <path id="Path_21296" data-name="Path 21296" d="M720,219.5c0,6.176,1.589,7.5,9,7.5s9-1.324,9-7.5-1.589-7.5-9-7.5S720,213.324,720,219.5Zm1.5,0c0,3.107.442,4.3,1.181,4.914a4.4,4.4,0,0,0,2.059.808,32.748,32.748,0,0,0,8.52,0,4.4,4.4,0,0,0,2.059-.808c.74-.616,1.181-1.807,1.181-4.914s-.442-4.3-1.181-4.914a4.4,4.4,0,0,0-2.059-.808,32.748,32.748,0,0,0-8.52,0,4.4,4.4,0,0,0-2.059.808C721.942,215.2,721.5,216.393,721.5,219.5Z" transform="translate(-662 120)" fill="#c5c5c5" fill-rule="evenodd"/>
    <path id="Path_20246" data-name="Path 20246" d="M9.814,14.9a.562.562,0,0,1-.562-.562V8.812a.562.562,0,0,1,.844-.487l4.786,2.763a.562.562,0,0,1,0,.974L10.1,14.826A.562.562,0,0,1,9.814,14.9Zm.563-5.115v3.578l3.1-1.789Z" transform="translate(55.155 327.924)" fill="#687487"/>
  </g>
</svg>
