<svg xmlns="http://www.w3.org/2000/svg" width="14.932" height="16.176" viewBox="0 0 14.932 16.176">
  <g id="Group_7" data-name="Group 7" transform="translate(-178 -244)">
    <path id="Path_21206" data-name="Path 21206" d="M720,147.466c0,6.148,1.318,7.466,7.466,7.466s7.466-1.318,7.466-7.466S733.614,140,727.466,140,720,141.318,720,147.466Zm1.244,0a16.739,16.739,0,0,0,.273,3.49,2.744,2.744,0,0,0,2.459,2.459,22.487,22.487,0,0,0,6.981,0,2.744,2.744,0,0,0,2.459-2.459,16.748,16.748,0,0,0,.272-3.49c0-.447-.007-.861-.022-1.244h-12.4C721.252,146.6,721.244,147.019,721.244,147.466Zm.111-2.489h12.22a9.386,9.386,0,0,0-.161-1,2.744,2.744,0,0,0-2.459-2.459,22.49,22.49,0,0,0-6.981,0,2.744,2.744,0,0,0-2.459,2.459A9.355,9.355,0,0,0,721.356,144.977Z" transform="translate(-542 105.244)" fill="#c5c5c5" fill-rule="evenodd"/>
    <path id="Path_21207" data-name="Path 21207" d="M725.622,153a.622.622,0,1,0,0,1.244h1.866a.622.622,0,1,0,0-1.244Z" transform="translate(-543.889 100.332)" fill="#838992"/>
    <path id="Path_21208" data-name="Path 21208" d="M725.622,157a.622.622,0,1,0,0,1.244h1.866a.622.622,0,1,0,0-1.244Z" transform="translate(-543.889 98.821)" fill="#838992"/>
    <path id="Path_21209" data-name="Path 21209" d="M734,153.622a.622.622,0,0,1,.622-.622h1.867a.622.622,0,0,1,0,1.244h-1.867A.622.622,0,0,1,734,153.622Z" transform="translate(-547.29 100.332)" fill="#838992"/>
    <path id="Path_21210" data-name="Path 21210" d="M734.622,157a.622.622,0,0,0,0,1.244h1.867a.622.622,0,0,0,0-1.244Z" transform="translate(-547.29 98.821)" fill="#838992"/>
    <path id="Path_21211" data-name="Path 21211" d="M727.622,138a.622.622,0,0,0-.622.622v2.489a.622.622,0,1,0,1.244,0v-2.489A.622.622,0,0,0,727.622,138Z" transform="translate(-544.645 106)" fill="#838992"/>
    <path id="Path_21212" data-name="Path 21212" d="M735.622,138a.622.622,0,0,0-.622.622v2.489a.622.622,0,1,0,1.244,0v-2.489A.622.622,0,0,0,735.622,138Z" transform="translate(-547.668 106)" fill="#838992"/>
  </g>
</svg>
