<svg xmlns="http://www.w3.org/2000/svg" width="18" height="18" viewBox="0 0 18 18">
  <g id="Group_8" data-name="Group 8" transform="translate(-196 -265)">
    <path id="Path_21436" data-name="Path 21436" d="M720,364c0,7.411,1.589,9,9,9s9-1.589,9-9-1.589-9-9-9S720,356.589,720,364Zm1.5,0a20.183,20.183,0,0,0,.328,4.207,3.308,3.308,0,0,0,2.964,2.964,27.111,27.111,0,0,0,8.415,0,3.308,3.308,0,0,0,2.964-2.964,27.11,27.11,0,0,0,0-8.415,3.308,3.308,0,0,0-2.964-2.964,27.111,27.111,0,0,0-8.415,0,3.308,3.308,0,0,0-2.964,2.964A20.183,20.183,0,0,0,721.5,364Z" transform="translate(-524 -90)" fill="#c5c5c5" fill-rule="evenodd"/>
    <path id="Path_21562" data-name="Path 21562" d="M886.652,508.31a1.024,1.024,0,0,1,1.469,0,1.07,1.07,0,0,1,0,1.5l-4.192,4.27a1.043,1.043,0,0,1-1.483,0l-1.468-1.5a1.072,1.072,0,0,1,0-1.5,1.026,1.026,0,0,1,1.468,0l.742.756Z" transform="translate(-679.296 -237.179)" fill="#838992"/>
  </g>
</svg>
