<svg xmlns="http://www.w3.org/2000/svg" width="14.21" height="18" viewBox="0 0 14.21 18">
  <g id="Group_5" data-name="Group 5" transform="translate(-342.5 -856)">
    <path id="map-marker-Filled_1_" d="M221.71,2778.605c0,5.76-4.424,9.369-6.319,10.648a1.335,1.335,0,0,1-.786.246,1.385,1.385,0,0,1-.8-.246c-1.895-1.279-6.309-4.879-6.309-10.648a7.105,7.105,0,0,1,14.21,0Zm-3.316,0a3.789,3.789,0,1,0-3.789,3.789A3.788,3.788,0,0,0,218.395,2778.605Z" transform="translate(135 -1915.5)" fill="#838992"/>
    <path id="Path_21675" data-name="Path 21675" d="M510,502.3a2.214,2.214,0,1,0,2.214-2.214A2.214,2.214,0,0,0,510,502.3Zm.738,0a1.476,1.476,0,1,0,1.476-1.476A1.476,1.476,0,0,0,510.738,502.3Z" transform="translate(-162.609 360.726)" fill="#c5c5c5" fill-rule="evenodd"/>
  </g>
</svg>
