<svg xmlns="http://www.w3.org/2000/svg" width="14.577" height="14.577" viewBox="0 0 14.577 14.577">
  <g id="Group_14" data-name="Group 14" transform="translate(-97 -307.086)">
    <path id="Path_21526" data-name="Path 21526" d="M216,507.374c0,6,1.286,7.288,7.288,7.288s7.288-1.286,7.288-7.288-1.286-7.288-7.288-7.288S216,501.372,216,507.374Zm1.215,0a16.344,16.344,0,0,0,.266,3.407,2.68,2.68,0,0,0,2.4,2.4,21.952,21.952,0,0,0,6.815,0,2.68,2.68,0,0,0,2.4-2.4,21.955,21.955,0,0,0,0-6.815,2.678,2.678,0,0,0-2.4-2.4,21.952,21.952,0,0,0-6.815,0,2.678,2.678,0,0,0-2.4,2.4A16.345,16.345,0,0,0,217.215,507.374Z" transform="translate(-119 -193)" fill="#c5c5c5" fill-rule="evenodd"/>
    <path id="Path_21527" data-name="Path 21527" d="M227.607,505a.608.608,0,0,0-.607.607v3.644a.608.608,0,0,0,.607.607h3.644a.607.607,0,1,0,0-1.215h-3.037v-3.037A.608.608,0,0,0,227.607,505Z" transform="translate(-123.319 -194.929)" fill="#838992"/>
  </g>
</svg>
